<svg width="33" height="33" viewBox="0 0 33 33" fill="none" xmlns="http://www.w3.org/2000/svg">
<path d="M16.5 0C7.40205 0 0 7.40205 0 16.5C0 25.5979 7.40205 33 16.5 33C25.5979 33 33 25.5979 33 16.5C33 7.40205 25.5979 0 16.5 0ZM16.5 28.875C9.67667 28.875 4.125 23.3233 4.125 16.5C4.125 13.8957 4.91455 11.4337 6.41579 9.33294L23.6671 26.5842C21.5663 28.0854 19.1043 28.875 16.5 28.875ZM26.5842 23.6671L9.33294 6.41579C11.4337 4.91455 13.8957 4.125 16.5 4.125C23.3233 4.125 28.875 9.67667 28.875 16.5C28.875 19.1043 28.0854 21.5663 26.5842 23.6671Z" fill="white"/>
</svg>
