<svg width="62" height="63" viewBox="0 0 62 63" fill="none" xmlns="http://www.w3.org/2000/svg">
<g clip-path="url(#clip0)">
<path d="M31 0.74707C14.1277 0.74707 0.322998 14.5517 0.322998 31.4241C0.322998 48.2965 14.1277 62.1012 31 62.1012C47.8724 62.1012 61.6771 48.2965 61.6771 31.4241C61.6771 14.5517 47.8724 0.74707 31 0.74707ZM31 55.9657C17.5021 55.9657 6.45841 44.922 6.45841 31.4241C6.45841 17.9262 17.5021 6.88248 31 6.88248C44.4979 6.88248 55.5417 17.9262 55.5417 31.4241C55.5417 44.922 44.4979 55.9657 31 55.9657Z" fill="#3F3E3E" fill-opacity="0.9"/>
<path d="M32.5339 16.0856H27.9324V34.4918L43.8844 44.3085L46.3386 40.3205L32.5339 32.0377V16.0856Z" fill="#3F3E3E" fill-opacity="0.9"/>
</g>
<defs>
<clipPath id="clip0">
<rect width="61.3541" height="61.3541" fill="white" transform="translate(0.322998 0.74707)"/>
</clipPath>
</defs>
</svg>
